<?xml version="1.0" standalone="no"?>
<!DOCTYPE svg PUBLIC "-//W3C//DTD SVG 20010904//EN"
 "http://www.w3.org/TR/2001/REC-SVG-20010904/DTD/svg10.dtd">
<svg version="1.0" xmlns="http://www.w3.org/2000/svg"
 width="268.000000pt" height="268.000000pt" viewBox="0 0 268.000000 268.000000"
 preserveAspectRatio="xMidYMid meet">
<metadata>
Created by potrace 1.14, written by Peter Selinger 2001-2017
</metadata>
<g transform="translate(0.000000,268.000000) scale(0.100000,-0.100000)"
fill="#000000" stroke="none">
<path d="M925 2273 c-11 -2 -66 -20 -122 -39 -108 -36 -181 -72 -274 -135 -59
-40 -69 -40 -69 -2 0 31 -9 29 -53 -12 -39 -37 -137 -179 -137 -199 0 -6 -11
3 -24 19 -17 21 -28 27 -35 20 -16 -16 -51 -124 -51 -157 l0 -29 -35 27 -35
26 -10 -28 c-6 -15 -12 -69 -13 -119 l-1 -92 -28 20 c-15 11 -31 18 -34 14
-11 -11 13 -135 36 -182 12 -24 37 -65 57 -91 l36 -47 -29 8 c-67 18 -94 23
-94 17 0 -3 18 -29 41 -59 41 -55 101 -105 154 -127 16 -7 45 -20 64 -28 l34
-14 -92 -39 c-51 -21 -88 -42 -84 -46 5 -5 44 -12 88 -15 44 -4 89 -8 100 -9
11 -1 43 -3 70 -4 l50 -2 -29 -22 c-16 -12 -50 -41 -75 -65 l-46 -43 105 6
c58 4 117 8 133 10 15 2 27 1 27 -2 0 -3 -14 -28 -31 -55 -16 -28 -28 -52 -25
-55 3 -3 47 2 98 10 106 18 123 12 115 -38 -3 -16 -8 -37 -12 -47 -6 -14 -2
-15 35 -7 39 9 44 7 85 -27 49 -40 49 -35 -6 -136 -21 -37 -34 -68 -30 -68 5
0 54 20 109 45 l101 44 58 -24 c85 -34 194 -52 308 -49 120 2 146 7 254 44
l83 28 100 -45 c55 -25 101 -43 103 -41 2 2 -14 39 -36 82 -40 76 -40 78 -22
98 40 45 67 57 106 48 32 -7 37 -6 37 10 0 10 -4 29 -9 42 -6 16 -5 29 4 42
12 16 20 17 67 7 84 -16 137 -21 142 -13 2 4 -8 25 -23 47 -46 68 -46 65 -4
61 21 -3 83 -8 138 -11 l100 -6 -45 43 c-25 24 -58 53 -75 65 l-30 22 50 2
c28 1 59 3 70 4 11 1 54 5 95 9 42 4 82 11 89 15 11 7 -83 56 -148 76 -22 7
-17 11 48 41 40 18 90 47 111 64 40 32 116 127 108 135 -3 3 -27 -2 -53 -10
-27 -8 -51 -12 -54 -10 -2 3 15 32 38 64 50 71 68 119 76 202 l7 62 -28 -22
c-14 -11 -30 -21 -35 -21 -4 0 -7 28 -7 63 1 73 -11 167 -21 167 -4 0 -18 -10
-30 -21 -26 -25 -35 -17 -46 38 -9 47 -42 123 -54 123 -6 0 -18 -12 -27 -26
l-17 -25 -43 73 c-39 68 -126 168 -145 168 -5 0 -9 -11 -9 -25 0 -14 -5 -25
-12 -25 -6 0 -45 22 -87 49 -42 26 -99 60 -128 75 -49 24 -192 70 -256 81
l-29 6 33 -27 c118 -95 203 -204 237 -304 34 -98 13 -218 -50 -293 l-23 -28
-51 48 c-273 255 -773 260 -1045 11 -23 -21 -47 -37 -52 -35 -6 2 -24 28 -40
58 -26 47 -30 64 -30 129 1 126 40 203 184 354 45 47 80 85 78 85 -2 -1 -13
-3 -24 -6z m-524 -306 c-18 -48 -8 -167 20 -227 33 -70 99 -153 149 -188 58
-40 66 -78 35 -163 -42 -117 -55 -229 -40 -348 3 -22 1 -42 -5 -46 -14 -8
-240 -17 -272 -9 -16 3 -28 9 -28 13 0 9 55 37 104 54 l39 13 -84 34 c-46 19
-100 42 -119 53 -37 20 -90 66 -90 78 0 4 30 -1 67 -12 103 -29 109 -25 47 33
-31 29 -70 73 -88 98 -34 47 -71 129 -62 138 3 2 28 -17 56 -44 28 -26 64 -57
81 -68 l32 -20 -36 47 c-51 66 -77 144 -77 225 l1 67 29 -57 c16 -31 43 -71
62 -87 35 -32 62 -43 32 -14 -9 10 -28 42 -42 71 -20 44 -23 65 -19 111 2 31
11 70 19 86 l16 29 16 -58 c11 -37 29 -70 52 -94 24 -25 34 -30 29 -17 -44
123 -39 172 22 259 57 79 72 92 54 43z m1955 -84 c35 -59 35 -144 -1 -216 -14
-27 -13 -28 3 -16 42 33 83 107 84 151 2 68 48 -34 48 -106 0 -44 -25 -107
-62 -159 l-23 -32 40 32 c37 28 85 103 85 132 0 6 5 11 10 11 16 0 12 -112 -7
-166 -18 -54 -36 -87 -67 -121 -40 -46 -8 -30 67 32 42 36 77 63 77 61 0 -2
-7 -22 -15 -45 -20 -57 -62 -116 -135 -188 l-63 -62 59 14 c33 7 71 18 87 24
36 14 34 2 -5 -36 -37 -35 -103 -70 -196 -103 l-63 -23 70 -33 c39 -18 71 -38
71 -44 0 -11 -171 -13 -278 -3 l-53 6 7 31 c16 75 3 260 -26 352 -29 95 -23
114 70 204 105 102 145 182 145 290 0 41 -4 86 -8 100 -7 22 -5 21 23 -10 17
-19 43 -54 56 -77z m-862 -50 c118 -27 206 -82 206 -128 0 -30 -80 -149 -107
-159 -7 -3 -70 -8 -141 -12 l-127 -6 -77 80 c-55 56 -78 87 -78 105 0 30 31
70 84 109 37 26 47 29 111 27 38 -1 97 -8 129 -16z m308 -162 c107 -45 247
-264 248 -384 0 -33 -28 -88 -68 -135 l-28 -34 -113 58 c-62 32 -119 68 -128
81 -9 13 -33 74 -53 134 -44 129 -43 142 22 228 62 81 57 79 120 52z m-595
-53 c68 -72 82 -94 84 -134 2 -40 -64 -214 -87 -231 -11 -8 -63 -36 -116 -64
-117 -59 -126 -58 -208 17 -86 80 -90 96 -50 202 55 144 94 193 194 241 93 46
112 42 183 -31z m-371 16 c12 -3 27 -17 33 -30 9 -21 6 -34 -23 -90 -19 -36
-47 -106 -63 -155 -17 -57 -38 -102 -56 -122 -16 -18 -44 -49 -62 -70 -46 -53
-69 -48 -73 16 -6 95 49 245 133 363 68 95 72 98 111 88z m496 -468 c29 -19
67 -50 85 -68 l31 -33 -22 -127 c-26 -149 -35 -164 -134 -203 -108 -43 -157
-34 -274 52 -85 62 -100 100 -83 211 12 78 38 111 125 154 101 50 159 67 192
57 15 -4 51 -23 80 -43z m445 14 c35 -16 85 -44 113 -62 l50 -33 -4 -68 c-10
-141 -28 -168 -160 -254 -104 -68 -122 -73 -173 -58 -23 7 -72 29 -108 50
l-66 37 5 41 c3 23 8 51 10 62 2 11 10 55 17 98 7 43 20 84 29 93 56 54 172
124 205 124 11 0 48 -13 82 -30z m-1153 -122 c3 -18 8 -42 10 -53 6 -29 42
-117 72 -176 31 -62 25 -102 -8 -48 -75 121 -111 231 -99 302 3 20 19 3 25
-25z m1357 -225 c24 -24 -77 -154 -175 -228 -72 -53 -180 -105 -220 -105 -63
0 -57 25 26 114 47 50 321 235 344 232 8 -1 19 -7 25 -13z m-982 -58 c42 -31
94 -69 117 -84 46 -32 74 -83 74 -134 0 -46 -19 -60 -84 -61 -64 -1 -168 47
-258 119 -73 57 -92 86 -92 143 l-1 46 55 18 c30 10 68 15 84 13 16 -3 63 -30
105 -60z m451 -289 c14 -2 31 -4 38 -5 6 0 12 -5 12 -10 0 -28 -280 -31 -323
-4 -33 20 173 35 273 19z"/>
</g>
</svg>
