<?xml version="1.0" standalone="no"?>
<!DOCTYPE svg PUBLIC "-//W3C//DTD SVG 20010904//EN"
 "http://www.w3.org/TR/2001/REC-SVG-20010904/DTD/svg10.dtd">
<svg version="1.0" xmlns="http://www.w3.org/2000/svg"
 width="500.000000pt" height="500.000000pt" viewBox="0 0 500.000000 500.000000"
 preserveAspectRatio="xMidYMid meet">
<metadata>
Created by potrace 1.14, written by Peter Selinger 2001-2017
</metadata>
<g transform="translate(0.000000,500.000000) scale(0.100000,-0.100000)"
fill="#000000" stroke="none">
<path d="M2420 3699 c-128 -19 -111 -26 55 -23 247 5 382 -30 592 -153 l41
-24 -23 -25 c-21 -23 -27 -24 -59 -16 -19 6 -37 8 -39 6 -2 -3 -10 2 -17 11
-14 17 -56 20 -65 5 -4 -6 -10 -8 -15 -5 -5 3 -15 -1 -22 -9 -12 -12 -18 -11
-39 4 l-24 19 33 -1 c18 -1 38 4 44 10 14 14 -64 70 -111 78 -20 3 -62 15 -93
26 -92 33 -167 15 -282 -67 -28 -21 -60 -35 -77 -35 -54 0 -86 -60 -59 -111
11 -20 54 -26 65 -9 11 18 41 11 52 -12 18 -38 23 -59 13 -53 -6 3 -10 13 -10
20 0 8 -9 19 -19 24 -25 14 -45 -10 -37 -44 6 -22 3 -25 -19 -25 -30 0 -61
-14 -90 -41 -29 -26 -113 -69 -134 -69 -24 0 -45 -25 -37 -45 3 -8 14 -15 24
-15 32 0 55 -24 47 -49 -5 -17 -11 -20 -28 -15 -27 9 -88 13 -104 7 -17 -7
-34 -62 -35 -116 -1 -55 4 -64 39 -67 97 -7 143 11 169 65 9 19 25 37 36 40
10 4 24 18 30 31 10 22 16 24 50 19 25 -4 44 -2 53 5 12 10 21 7 49 -16 19
-16 45 -36 57 -45 16 -11 23 -26 23 -51 0 -31 2 -34 26 -30 14 2 36 16 49 30
22 22 25 23 36 8 17 -23 62 -20 77 4 7 11 20 20 29 20 18 0 42 -23 34 -32 -11
-11 15 -58 33 -58 10 0 23 -5 29 -11 12 -12 69 -15 102 -4 41 13 16 -65 -27
-85 -31 -14 -150 -4 -172 15 -34 29 -59 28 -91 -5 -35 -35 -57 -33 -99 5 -14
13 -41 27 -60 32 -27 7 -36 15 -38 35 -2 15 -10 32 -19 39 -23 20 -140 14
-208 -10 -33 -12 -78 -21 -102 -21 -59 0 -103 -40 -126 -114 -12 -36 -24 -57
-37 -61 -31 -10 -88 -84 -104 -134 -16 -54 -14 -198 5 -233 25 -47 103 -140
133 -159 23 -15 43 -19 75 -16 25 3 55 0 67 -5 17 -8 33 -7 64 6 94 38 59 6
-106 -96 -109 -68 -184 -106 -329 -169 l-110 -49 -22 28 c-92 111 -176 377
-189 595 -24 410 158 785 507 1043 49 37 87 69 85 72 -21 20 -210 -104 -303
-200 -153 -156 -247 -319 -301 -523 -32 -121 -34 -138 -37 -300 -2 -114 1
-173 15 -246 33 -174 87 -322 159 -434 l32 -50 -38 -11 c-55 -17 -162 -12
-194 9 -30 20 -49 57 -49 95 0 34 31 100 60 130 33 35 12 48 -31 20 -67 -45
-99 -160 -64 -228 8 -16 31 -41 50 -56 45 -34 141 -41 231 -17 l60 16 109
-109 c176 -175 361 -287 565 -342 132 -35 372 -41 503 -12 560 126 966 598
971 1130 2 177 -16 282 -74 443 -18 48 -30 90 -27 93 2 3 33 24 68 48 130 87
170 190 83 215 -36 10 -87 -5 -139 -40 -33 -22 -50 -58 -22 -46 133 59 167 64
167 27 0 -30 -46 -76 -119 -118 l-68 -39 -46 76 c-159 266 -395 465 -657 554
-41 14 -88 28 -105 31 -16 4 -41 9 -55 12 -43 9 -233 11 -290 3z m234 -143
c40 -18 76 -38 80 -45 10 -15 11 -16 -89 34 -105 52 -98 61 9 11z m39 12 c60
-25 62 -26 55 -33 -3 -3 -34 8 -69 24 -74 34 -63 42 14 9z m-113 -9 c19 -11
27 -18 17 -15 -10 3 -24 6 -31 6 -7 0 -21 7 -32 15 -30 22 4 18 46 -6z m-49
-9 c13 -10 19 -19 13 -20 -7 0 -22 9 -35 20 -13 10 -19 19 -13 20 7 0 22 -9
35 -20z m-17 -46 c-23 -12 -29 -12 -50 5 -30 23 -19 36 14 15 13 -8 26 -13 29
-11 2 3 -5 10 -16 17 -12 6 -21 15 -21 20 0 5 16 0 35 -12 l36 -20 -27 -14z
m296 31 c33 -19 21 -19 -21 0 -19 8 -27 14 -19 14 8 0 26 -6 40 -14z m130
-152 c413 -195 530 -257 545 -288 9 -16 25 -45 37 -63 l20 -33 -28 13 c-16 7
-45 22 -64 34 -19 12 -53 30 -75 41 -22 10 -65 33 -95 50 -30 16 -104 56 -165
88 -60 32 -132 70 -160 85 -104 57 -192 104 -259 139 -38 20 -62 37 -55 39 8
1 185 -83 394 -188 360 -181 456 -228 443 -215 -3 3 -117 62 -254 131 -427
216 -558 285 -574 301 -8 8 28 -6 80 -32 52 -26 147 -72 210 -102z m-460 97
c0 -22 -19 -17 -69 16 -1 2 0 8 4 13 6 11 65 -16 65 -29z m101 16 c-13 -14
-24 -38 -24 -58 -2 -31 0 -33 33 -33 30 0 35 -3 35 -22 0 -18 -6 -23 -26 -23
-28 0 -55 -23 -45 -38 7 -12 -79 -22 -118 -15 l-29 6 33 11 c18 6 36 18 40 26
4 8 12 25 19 38 6 12 9 33 5 46 -4 19 1 27 30 46 20 12 36 26 36 31 0 5 8 9
17 9 14 0 13 -4 -6 -24z m-152 -26 c48 -24 54 -40 35 -85 -18 -43 -38 -45 -59
-5 -11 20 -27 32 -54 40 -21 5 -44 17 -51 25 -26 32 1 26 62 -12 107 -67 111
-63 10 8 -63 44 -44 47 28 5 75 -44 92 -47 28 -5 -27 17 -48 35 -48 40 0 13 6
11 49 -11z m222 -15 l44 -25 -57 0 c-59 0 -73 11 -46 38 15 15 8 16 59 -13z
m536 -16 c19 -16 32 -29 29 -29 -16 0 -124 59 -118 64 12 12 55 -4 89 -35z
m-232 21 c3 -5 13 -10 21 -10 8 0 92 -33 187 -74 148 -64 177 -80 206 -116 37
-44 39 -45 -74 9 -310 148 -375 181 -375 191 0 13 27 13 35 0z m-9 -38 c32
-16 152 -73 266 -127 149 -71 212 -106 228 -127 19 -26 5 -21 -137 50 -87 43
-220 109 -295 147 -76 37 -135 72 -132 76 7 12 2 13 70 -19z m170 19 c5 -5 37
-19 70 -31 38 -13 75 -36 95 -56 l34 -35 -75 34 c-41 19 -97 44 -123 56 -27
11 -46 25 -42 31 8 12 28 13 41 1z m-796 -31 c0 -6 -9 -10 -20 -10 -13 0 -20
7 -20 20 0 18 3 19 20 10 11 -6 20 -15 20 -20z m570 -81 c172 -90 338 -179
465 -246 55 -30 119 -63 141 -75 36 -18 88 -78 68 -78 -4 0 0 -8 8 -17 8 -10
20 -32 26 -50 l10 -31 -34 20 c-22 13 -34 28 -34 41 0 16 -6 10 -19 -19 -10
-23 -32 -50 -47 -61 -98 -69 -675 -323 -735 -323 -57 0 40 78 351 285 283 188
334 212 400 190 22 -7 23 -6 11 9 -7 9 -19 16 -26 16 -30 0 -345 169 -387 208
-14 13 -31 21 -37 18 -6 -4 -45 13 -88 37 -43 25 -111 61 -150 81 -40 20 -73
40 -73 44 0 7 10 22 15 22 0 0 62 -32 135 -71z m-102 2 c34 -19 62 -37 62 -42
0 -22 -26 -15 -101 26 -45 25 -84 44 -86 41 -5 -4 33 -28 124 -77 34 -19 67
-44 72 -56 6 -13 8 -23 5 -23 -4 0 -215 118 -221 123 -9 10 13 47 31 49 26 5
36 1 114 -41z m-150 -20 c28 -19 47 -31 172 -99 49 -27 82 -52 94 -73 l19 -33
-59 34 c-121 69 -180 101 -231 126 -36 19 -51 32 -50 45 2 24 22 24 55 0z
m-238 -26 c5 3 33 -9 62 -28 29 -18 94 -56 143 -84 285 -161 412 -237 428
-255 20 -24 24 -46 5 -31 -7 6 -40 25 -73 43 -33 19 -180 102 -327 187 -147
84 -272 153 -277 153 -4 0 -8 11 -8 24 0 23 0 23 19 4 10 -10 23 -16 28 -13z
m392 -121 c85 -46 146 -87 159 -105 11 -16 18 -29 14 -29 -5 0 -196 108 -358
202 -38 22 -71 38 -73 35 -6 -6 52 -41 284 -171 94 -54 177 -106 182 -117 6
-10 9 -19 7 -19 -2 0 -87 48 -188 106 -101 59 -202 117 -224 129 -22 13 -60
35 -85 49 -34 19 -40 26 -28 31 10 4 21 4 26 1 5 -3 22 -1 38 3 23 6 38 3 69
-16 22 -13 102 -57 177 -99z m178 28 c47 -48 126 -132 177 -187 85 -93 90
-101 70 -109 -12 -5 -28 -10 -35 -12 -20 -4 -28 -14 -11 -14 11 0 11 -2 -1
-10 -11 -7 -17 -5 -22 8 -5 14 -7 12 -7 -6 -1 -13 -5 -21 -11 -17 -5 3 -6 13
-3 22 5 12 2 15 -10 10 -27 -10 -51 21 -149 193 -138 241 -138 266 2 122z
m-436 -31 c105 -59 218 -123 251 -141 33 -18 93 -53 133 -77 41 -24 76 -43 78
-43 13 0 83 -54 88 -67 11 -29 -2 -26 -74 16 -40 22 -74 41 -76 41 -2 0 -59
32 -125 70 -67 39 -123 70 -125 70 -2 0 -87 47 -188 104 -157 89 -246 133
-226 113 6 -5 289 -165 390 -219 232 -125 387 -212 399 -224 13 -11 12 -14 -1
-19 -19 -8 -125 50 -141 76 -7 11 -21 19 -31 19 -11 0 -69 29 -130 64 -227
130 -277 157 -288 150 -6 -4 -8 -3 -5 3 7 10 -210 139 -219 130 -4 -4 82 -57
159 -96 19 -10 24 -18 17 -25 -11 -11 -41 3 -148 72 -52 33 -53 34 -36 53 16
18 60 36 93 38 7 1 99 -48 205 -108z m486 39 c0 -17 -16 -11 -41 16 l-24 27
33 -17 c17 -9 32 -21 32 -26z m-718 -56 c73 -41 98 -60 98 -75 0 -11 -3 -18
-7 -16 -139 82 -213 130 -213 140 0 16 28 5 122 -49z m774 35 c1 -5 2 -16 3
-25 1 -9 6 -12 14 -8 6 4 8 3 4 -1 -15 -17 -36 -13 -58 12 -16 16 -18 22 -8
18 10 -4 19 0 23 11 6 16 20 12 22 -7z m-831 -50 c47 -28 85 -52 85 -54 0 -1
-8 -9 -17 -16 -10 -7 -15 -9 -11 -5 4 5 -23 29 -60 53 -127 85 -125 99 3 22z
m-30 -16 c76 -49 96 -70 49 -53 -19 8 -31 7 -41 -1 -17 -14 -59 5 -74 33 -12
23 -8 23 37 -2 20 -12 38 -19 41 -16 2 2 -23 19 -56 36 -34 18 -61 37 -61 41
0 19 35 7 105 -38z m1172 -98 c31 -14 29 -22 -7 -30 -23 -5 -44 2 -95 30 -36
21 -73 48 -82 61 -11 17 -23 24 -43 22 -35 -3 -59 17 -53 42 5 18 17 14 132
-47 69 -37 136 -72 148 -78z m-268 81 c13 -7 20 -16 15 -19 -5 -3 -20 3 -33
14 -27 22 -17 25 18 5z m-616 -53 c36 -27 47 -41 47 -61 0 -15 -4 -22 -8 -16
-4 6 -30 26 -59 43 -50 31 -69 54 -57 72 6 11 13 8 77 -38z m674 30 c-4 -3 0
-14 9 -24 9 -10 13 -22 10 -28 -8 -12 -36 -3 -36 11 0 6 8 4 18 -3 15 -13 16
-12 3 4 -8 10 -20 16 -28 13 -7 -3 -13 -4 -13 -1 0 6 31 35 37 35 4 0 3 -3 0
-7z m-977 -43 c0 -12 -3 -12 -34 0 -14 5 -26 16 -26 25 0 14 3 14 30 0 17 -9
30 -20 30 -25z m426 -25 l30 -18 -22 -24 c-37 -39 -64 -26 -64 32 0 14 -13 34
-32 50 l-33 26 45 -23 c25 -14 59 -33 76 -43z m-556 -7 c33 -23 60 -45 60 -48
0 -4 -9 -15 -20 -25 -18 -17 -21 -16 -64 9 -54 32 -78 54 -70 67 3 5 24 -4 47
-19 48 -33 103 -62 76 -40 -9 7 -37 28 -63 45 -44 31 -59 53 -36 53 6 0 38
-19 70 -42z m36 13 c29 -18 42 -31 35 -36 -12 -7 -18 -3 -74 42 -40 32 -16 29
39 -6z m324 3 c0 -2 -9 0 -20 6 -11 6 -20 13 -20 16 0 2 9 0 20 -6 11 -6 20
-13 20 -16z m874 -24 c31 -19 35 -25 22 -32 -10 -6 -31 0 -65 17 -39 21 -48
30 -44 46 5 17 8 18 27 6 11 -7 38 -24 60 -37z m-1138 25 c19 -14 19 -14 -2
-15 -11 0 -29 7 -40 15 -19 14 -19 14 2 15 11 0 29 -7 40 -15z m339 -66 c-2
-28 -25 -38 -25 -12 0 10 -7 29 -16 42 l-16 23 29 -16 c21 -10 29 -22 28 -37z
m785 -11 c0 -7 -4 -9 -28 -12 -5 -1 -24 17 -43 38 l-34 40 53 -29 c28 -15 52
-32 52 -37z m-1264 -4 c25 -15 43 -29 40 -31 -3 -3 -26 -2 -51 1 -39 6 -45 10
-45 32 0 30 1 30 56 -2z m819 -55 c13 -13 -42 -11 -82 3 -27 10 -33 17 -33 40
l0 27 53 -30 c28 -17 56 -35 62 -40z m-495 -5 c4 -5 10 -20 12 -33 1 -13 12
-29 23 -35 11 -6 74 -46 140 -89 109 -71 151 -110 139 -129 -2 -3 9 -16 26
-28 33 -23 40 -45 12 -38 -9 3 -109 65 -222 139 -113 74 -229 150 -257 168
-29 19 -52 35 -50 37 1 1 22 5 47 9 25 4 46 8 47 9 7 6 75 -2 83 -10z m-43
-117 c87 -56 211 -136 275 -177 64 -41 119 -82 121 -92 3 -10 14 -18 26 -18
12 0 21 -6 21 -15 0 -14 -110 51 -385 230 -60 39 -139 89 -175 110 -36 22 -67
41 -70 43 -3 2 19 21 27 22 1 0 73 -46 160 -103z m810 88 c9 -25 -4 -29 -17
-6 -7 15 -7 21 0 21 6 0 13 -7 17 -15z m461 -5 c27 -17 56 -58 47 -68 -3 -4
-94 49 -100 59 -7 10 2 29 13 29 4 0 22 -9 40 -20z m-1307 -112 c99 -62 219
-137 267 -166 192 -119 222 -140 235 -176 7 -17 6 -17 -15 -4 -13 8 -44 27
-70 42 -27 15 -48 34 -48 42 0 7 -6 11 -14 8 -12 -4 -174 91 -354 208 -31 21
-64 41 -72 45 -16 7 -172 103 -179 109 -2 2 13 4 33 4 31 0 71 -21 217 -112z
m-101 0 c381 -233 430 -263 430 -269 0 -35 -105 21 -563 299 -31 19 -60 33
-63 29 -3 -3 6 -11 19 -19 14 -7 80 -46 148 -87 68 -41 190 -113 272 -161 124
-73 145 -89 132 -100 -12 -10 -22 -8 -52 10 -21 13 -51 31 -68 40 -284 166
-379 221 -422 245 -29 15 -53 34 -53 41 0 16 50 75 58 70 4 -2 77 -46 162 -98z
m800 77 c49 -25 71 -45 50 -45 -17 0 -110 53 -110 63 0 11 7 9 60 -18z m609
-20 c42 -25 61 -42 61 -56 0 -18 -8 -16 -79 23 -60 33 -77 46 -69 55 15 18 20
17 87 -22z m-620 -12 c25 -14 40 -28 33 -31 -6 -2 -25 6 -42 18 -17 12 -35 20
-42 18 -6 -2 6 -14 27 -26 20 -13 35 -25 32 -28 -3 -3 -20 5 -39 18 -18 12
-35 24 -37 25 -6 3 8 33 15 33 4 0 28 -12 53 -27z m678 -77 c14 -13 29 -121
16 -113 -4 2 -38 23 -76 46 -37 22 -69 41 -72 41 -3 0 -100 57 -115 68 -2 2 2
7 10 12 10 6 28 2 55 -14 22 -13 58 -34 80 -46 22 -12 55 -31 73 -42 18 -11
36 -18 39 -14 3 3 -3 9 -13 13 -11 5 -62 32 -113 62 -90 52 -93 54 -70 67 21
11 32 8 99 -28 41 -22 81 -46 87 -52z m-866 -10 c98 -53 97 -43 -1 15 -55 33
-74 48 -55 44 17 -4 46 -6 65 -6 21 0 54 -10 83 -28 l48 -28 -35 -26 c-19 -15
-39 -27 -45 -27 -17 0 -241 137 -234 143 3 4 29 -6 57 -22 28 -16 81 -45 117
-65z m135 53 c19 -11 34 -24 34 -29 0 -20 -19 -17 -59 7 -32 19 -40 28 -30 34
19 12 17 12 55 -12z m-255 -24 c33 -19 62 -35 64 -35 3 0 28 -14 56 -32 40
-24 48 -33 36 -40 -11 -6 -46 11 -121 58 -58 37 -106 70 -106 75 0 14 8 11 71
-26z m-604 -43 c90 -54 135 -79 263 -150 25 -14 57 -33 72 -43 14 -11 29 -19
32 -19 3 0 29 -14 57 -32 42 -25 48 -33 35 -40 -12 -7 -30 -2 -64 18 -86 49
-156 88 -334 187 -148 83 -175 101 -171 118 3 10 7 19 8 19 2 0 47 -26 102
-58z m559 27 c30 -17 54 -35 54 -40 0 -11 -59 19 -100 51 -38 29 -14 24 46
-11z m898 -39 c140 -80 171 -101 165 -118 -5 -15 -294 151 -303 173 -9 25 9
18 138 -55z m-106 -145 c29 -104 55 -204 58 -222 6 -31 5 -32 -22 -24 -20 5
-35 21 -54 57 -14 27 -49 93 -78 146 -50 92 -58 125 -39 155 4 6 3 14 -3 18
-5 3 -10 14 -10 23 1 15 2 15 11 -1 12 -21 29 -13 29 14 0 10 5 19 11 19 5 0
7 -5 4 -11 -4 -6 2 -5 13 2 12 7 18 18 15 24 -4 6 -3 7 4 0 5 -5 33 -95 61
-200z m-1417 137 c24 -16 80 -48 124 -72 44 -24 102 -57 130 -73 27 -16 59
-33 70 -38 11 -5 43 -22 70 -39 28 -17 62 -36 78 -43 32 -13 34 -23 8 -32 -18
-6 -47 8 -165 77 -28 17 -89 51 -136 76 -47 25 -107 58 -135 74 -27 16 -69 38
-93 49 -34 17 -40 24 -31 35 16 20 29 18 80 -14z m1519 -39 c19 -11 65 -36
103 -57 63 -35 67 -40 67 -73 l0 -35 -32 19 c-17 10 -34 25 -36 33 -5 13 -3
13 12 1 9 -8 19 -12 22 -9 2 3 -33 26 -79 52 -48 27 -90 58 -98 73 -10 19 -19
24 -41 21 -15 -3 -28 -1 -28 3 0 4 -3 15 -7 25 -7 19 -12 21 117 -53z m-250
32 c8 -9 8 -15 0 -20 -6 -3 -8 -11 -5 -16 4 -5 3 -9 0 -9 -7 0 -44 42 -45 50
0 12 39 8 50 -5z m-1298 -38 c40 -24 122 -69 183 -101 160 -85 289 -157 299
-167 14 -13 -18 -11 -51 3 -15 7 -44 22 -63 33 -19 12 -62 37 -95 55 -123 67
-281 154 -320 174 -22 11 -42 21 -44 23 -4 2 8 23 14 23 2 0 36 -19 77 -43z
m748 9 c1 5 10 -2 20 -15 11 -13 20 -20 20 -17 0 4 5 4 10 1 8 -5 7 -11 -1
-21 -10 -12 -17 -8 -45 23 -19 21 -34 43 -34 48 0 6 7 1 15 -9 8 -11 15 -16
15 -10z m483 -10 c-4 -5 1 -7 10 -3 11 4 14 2 10 -9 -11 -29 -44 -4 -35 28 3
14 7 16 13 7 4 -7 5 -17 2 -23z m-1254 -30 c42 -24 126 -70 186 -102 189 -99
295 -161 288 -168 -13 -12 -44 -6 -81 17 -46 29 -356 200 -434 239 -39 20 -55
33 -51 44 3 7 8 14 11 14 3 0 39 -20 81 -44z m1506 36 c-3 -3 1 -12 8 -20 9
-12 9 -16 -1 -19 -6 -3 -9 -10 -6 -16 3 -7 -3 -1 -14 12 -22 27 -20 48 3 48 8
0 13 -3 10 -5z m-315 -19 c0 4 20 -4 43 -18 24 -14 47 -22 51 -18 4 4 4 0 0
-10 -4 -11 -1 -17 9 -17 8 0 20 -7 27 -15 9 -10 9 -15 1 -15 -6 0 -11 5 -11
11 0 5 -3 8 -8 5 -11 -6 -144 79 -135 87 4 4 10 2 15 -5 4 -7 8 -9 8 -5z
m-1252 -36 c20 -13 93 -53 162 -90 69 -36 141 -75 160 -86 19 -11 67 -37 107
-58 67 -35 83 -53 46 -53 -8 0 -38 13 -66 28 -162 90 -264 145 -359 196 -104
55 -116 65 -101 79 9 10 9 10 51 -16z m1299 -23 c43 -25 80 -50 81 -55 2 -5 9
-6 15 -2 7 3 4 -3 -7 -15 -21 -24 -13 -27 -139 46 -43 24 -80 42 -82 40 -2 -2
38 -28 90 -57 86 -49 113 -71 85 -71 -24 0 -210 115 -210 130 0 13 2 13 10 0
8 -13 10 -12 15 1 8 22 34 20 75 -6 60 -37 150 -86 150 -81 0 3 -30 23 -67 45
-38 22 -77 46 -88 55 -38 29 -5 16 72 -30z m375 8 c35 -20 45 -31 37 -39 -13
-13 -109 35 -109 54 0 20 20 15 72 -15z m-1675 -36 c32 -18 108 -59 168 -91
219 -115 294 -158 289 -167 -10 -16 -48 -1 -196 80 -79 44 -186 101 -238 127
-52 27 -96 50 -98 51 -3 2 9 34 14 34 1 0 29 -15 61 -34z m1093 13 c10 17 43
-40 63 -107 13 -47 13 -51 -2 -43 -36 20 -61 59 -71 110 -10 54 -12 82 -3 47
4 -13 7 -15 13 -7z m547 -6 c29 -15 53 -34 53 -42 0 -12 -3 -12 -17 2 -10 8
-40 27 -68 41 -27 14 -44 26 -36 26 8 0 38 -12 68 -27z m-574 -33 c4 -16 2
-18 -13 -10 -10 5 -20 18 -23 30 -4 16 -2 18 13 10 10 -5 20 -18 23 -30z m235
-52 c30 -15 28 -21 -13 -41 -32 -15 -39 -16 -65 -2 -29 15 -64 55 -55 63 2 3
10 0 17 -6 24 -19 90 -53 95 -48 3 2 -10 12 -29 22 -46 24 -97 64 -109 85 -6
13 12 7 63 -22 40 -22 83 -45 96 -51z m295 67 c1 -5 -6 -11 -15 -13 -11 -2
-18 3 -18 13 0 17 30 18 33 0z m-578 -4 c-3 -5 8 -17 24 -27 16 -10 32 -26 35
-36 5 -21 5 -21 -46 11 -38 23 -48 45 -25 54 18 8 19 8 12 -2z m724 -46 c7
-27 20 -51 35 -60 22 -14 22 -19 14 -73 -45 -286 -197 -542 -433 -726 -175
-137 -378 -224 -585 -252 -57 -7 -220 -8 -255 -1 -11 3 -40 8 -65 12 -201 31
-439 162 -610 336 -63 64 -103 110 -98 113 2 2 59 29 128 60 145 66 267 133
400 222 83 55 100 62 133 59 50 -5 66 -20 61 -53 -12 -78 -9 -87 32 -112 71
-44 90 -119 50 -194 -21 -39 -23 -51 -14 -88 5 -24 15 -52 22 -63 7 -11 21
-47 30 -79 10 -32 24 -69 33 -82 8 -13 16 -35 18 -49 5 -47 23 -55 84 -39 92
24 140 50 159 86 15 29 46 63 105 116 11 10 17 30 17 57 0 37 4 44 37 66 21
13 48 40 61 59 20 30 23 44 20 120 -3 102 0 108 99 214 74 80 137 185 126 212
-7 20 -42 18 -97 -7 -53 -23 -62 -21 -68 20 -4 28 -2 29 22 24 33 -6 122 35
168 78 18 17 32 26 32 22 0 -4 5 -1 10 7 8 12 10 9 10 -13 0 -16 4 -26 10 -22
6 4 13 -7 16 -24 4 -19 11 -28 18 -24 6 3 6 0 -1 -8 -17 -18 -16 -34 1 -20 11
9 12 6 9 -16 -4 -22 -2 -25 6 -13 9 12 11 9 11 -15 0 -24 2 -27 11 -15 8 11 9
8 5 -15 -4 -19 -3 -25 2 -16 15 21 25 -5 12 -31 -9 -19 -8 -20 2 -6 12 16 15
15 40 -9 23 -22 30 -24 43 -13 13 11 15 25 11 64 -7 50 -7 50 14 31 32 -29 51
-3 54 76 2 64 24 142 37 134 3 -3 12 -25 18 -50z m-1710 -9 c79 -44 182 -99
374 -198 18 -9 18 -10 1 -22 -14 -11 -49 4 -243 102 -124 63 -226 115 -227
116 -6 6 -13 56 -8 56 3 0 49 -24 103 -54z m1647 8 c-3 -9 -6 -21 -6 -27 0 -7
-7 -3 -15 7 -8 10 -12 23 -9 28 3 4 -2 11 -10 14 -9 3 -16 10 -16 15 0 5 14 2
31 -6 20 -11 29 -21 25 -31z m-735 12 c0 -6 3 -23 5 -38 3 -16 0 -28 -6 -28
-6 0 -8 5 -5 10 3 6 1 10 -6 10 -7 0 -9 3 -6 7 4 3 1 13 -6 21 -10 13 -9 14 3
7 12 -6 13 -5 3 6 -7 7 -13 16 -13 21 0 12 30 -3 31 -16z m143 -66 c66 -44 76
-54 76 -80 0 -27 6 -33 66 -60 57 -25 64 -32 55 -47 -23 -39 -59 -75 -70 -69
-7 4 -9 1 -5 -7 12 -31 -18 -26 -88 16 -103 62 -255 150 -308 179 -90 50 -110
63 -110 71 0 27 47 8 187 -76 173 -103 203 -120 203 -114 0 3 -66 44 -147 92
-207 122 -214 127 -202 142 11 13 43 -2 127 -58 24 -16 45 -29 48 -29 3 0 29
-15 57 -33 144 -93 268 -166 252 -150 -5 6 -71 49 -146 95 -112 69 -134 86
-120 95 12 8 30 1 76 -28 62 -39 147 -91 200 -123 l30 -18 -25 21 c-14 11 -45
33 -70 48 -119 70 -200 128 -200 141 0 14 24 2 115 -58 55 -36 65 -42 65 -36
0 3 -28 23 -62 45 -88 55 -118 80 -118 97 0 18 9 13 114 -56z m532 58 c5 4 2
-1 -5 -11 -8 -9 -11 -20 -7 -24 3 -3 6 -1 6 6 0 7 5 9 11 5 8 -4 7 -9 -2 -15
-22 -14 -37 -10 -34 9 1 9 -3 23 -9 31 -9 12 -8 12 10 3 12 -6 25 -8 30 -4z
m184 -20 c0 -11 -7 -10 -31 2 -28 16 -23 32 6 18 14 -6 25 -15 25 -20z m-1450
-239 c-64 -18 -108 -1 -357 138 -55 30 -85 53 -69 53 2 0 69 -32 148 -71 169
-84 250 -121 255 -115 2 2 -13 11 -34 21 -141 64 -363 182 -363 193 0 7 94
-35 223 -100 189 -95 218 -113 197 -119z m1440 221 c8 -5 11 -12 8 -16 -10 -9
-38 3 -38 16 0 12 10 13 30 0z m-120 -26 c0 -17 -22 -14 -28 4 -2 7 3 12 12
12 9 0 16 -7 16 -16z m-454 -9 c18 -15 18 -15 -5 -13 -14 2 -26 9 -29 16 -5
17 10 15 34 -3z m-464 -33 c35 -21 145 -84 246 -141 100 -57 182 -107 182
-111 0 -14 -47 -50 -56 -43 -5 5 -6 4 -2 -1 4 -5 -1 -25 -11 -45 -13 -26 -17
-54 -15 -99 2 -47 -1 -61 -9 -53 -7 5 -158 82 -335 171 l-324 162 34 28 33 28
85 -45 c47 -25 123 -66 170 -91 47 -25 130 -69 184 -98 55 -30 101 -53 103
-51 3 3 -111 67 -257 145 -25 13 -96 51 -158 84 -92 49 -111 63 -101 74 10 12
16 11 43 -5 17 -10 63 -35 101 -56 39 -21 129 -71 200 -110 155 -86 224 -121
210 -107 -5 6 -50 32 -100 58 -49 26 -107 58 -127 71 -21 12 -40 23 -42 23 -2
0 -53 27 -112 60 -59 33 -111 60 -115 60 -16 0 -28 27 -17 38 11 11 23 6 248
-118 119 -66 130 -71 130 -66 0 2 -26 19 -57 37 -32 17 -74 41 -93 52 -19 11
-72 40 -118 65 -57 30 -80 48 -73 55 7 7 14 7 23 0 7 -5 49 -29 93 -53 137
-74 189 -102 230 -125 91 -52 158 -86 161 -82 3 3 -220 128 -420 235 -33 18
-62 36 -64 41 -6 18 30 20 61 2 369 -209 467 -263 467 -258 0 4 -162 98 -290
169 -54 30 -194 110 -199 114 -6 5 10 24 19 24 5 0 38 -17 72 -38z m857 1 c-1
-37 -1 -37 -8 -8 -7 28 -5 45 5 45 2 0 3 -17 3 -37z m57 -17 c1 -32 -11 -42
-31 -26 -22 19 -18 32 8 25 21 -6 21 -6 3 9 -11 9 -21 23 -22 32 -2 14 0 14
19 1 13 -8 22 -26 23 -41z m-1563 -71 c86 -44 157 -83 157 -86 0 -4 -13 -9
-29 -11 -17 -2 -28 -1 -26 3 6 9 -24 21 -35 14 -5 -3 -26 -8 -47 -10 -29 -4
-44 0 -63 16 l-25 20 32 -15 c56 -28 50 -17 -13 23 -91 57 -85 64 13 14 125
-63 126 -52 0 15 -59 31 -115 68 -124 81 -9 13 -12 22 -7 20 5 -2 80 -40 167
-84z m1227 35 c0 -5 -2 -10 -4 -10 -3 0 -8 5 -11 10 -3 6 -1 10 4 10 6 0 11
-4 11 -10z m-20 -15 c16 -19 0 -19 -26 0 -16 12 -16 14 -3 15 9 0 22 -7 29
-15z m-35 -7 c21 -9 36 -38 20 -38 -13 0 -64 38 -58 43 8 9 8 9 38 -5z m317
-32 c23 -33 -1 -34 -25 -1 -17 24 -17 24 0 18 10 -4 21 -11 25 -17z m-837
-231 c181 -91 333 -169 337 -173 10 -10 -2 -53 -13 -46 -5 3 -6 -1 -4 -8 3 -8
-5 -23 -17 -35 l-23 -21 -270 134 c-148 74 -275 141 -281 149 -11 15 -8 55 4
55 4 0 47 -20 97 -44 49 -24 174 -85 277 -135 103 -50 190 -91 195 -90 7 0
-533 272 -562 283 -5 2 -8 6 -5 9 3 3 41 -11 85 -33 44 -21 174 -84 289 -139
115 -56 211 -100 212 -98 2 2 -130 70 -293 151 -163 82 -304 157 -313 168 -9
12 -29 21 -47 22 -29 1 -37 16 -9 16 7 0 161 -74 341 -165z m-56 -131 c64 -31
162 -79 219 -105 85 -40 101 -51 90 -62 -10 -12 -32 -4 -128 46 -152 79 -310
167 -310 173 0 9 17 2 129 -52z m139 -111 c123 -61 155 -84 138 -100 -3 -3
-13 0 -22 8 -17 14 -103 61 -259 140 -55 29 -103 57 -107 63 -17 26 -4 24 55
-9 34 -19 122 -65 195 -102z m70 -77 c57 -32 72 -45 72 -63 0 -29 -1 -29 -53
4 -23 15 -80 47 -127 71 -151 78 -210 116 -210 135 0 15 22 7 123 -44 67 -35
155 -81 195 -103z m-283 93 c17 -11 75 -43 130 -71 55 -27 126 -66 159 -86 48
-29 55 -37 42 -44 -13 -7 -26 -3 -49 15 -29 22 -232 140 -299 174 -16 8 -28
19 -28 24 0 14 12 11 45 -12z m-29 -18 c5 -5 54 -33 109 -62 55 -29 128 -70
162 -92 l63 -39 -33 -41 c-17 -23 -33 -43 -33 -45 -1 -2 -21 9 -45 25 -23 15
-49 33 -58 38 -8 6 -20 15 -27 20 -6 6 -51 36 -98 68 -47 32 -86 62 -86 67 0
8 151 -80 268 -157 29 -19 55 -33 58 -31 4 5 -83 64 -116 80 -43 20 -205 135
-208 148 -3 10 3 8 19 -6 13 -12 53 -36 89 -55 36 -18 102 -57 148 -86 45 -29
86 -53 89 -53 14 0 -107 80 -195 130 -102 57 -157 99 -131 100 8 0 19 -4 25
-9z m120 -197 c126 -84 158 -114 123 -114 -5 0 -46 28 -92 63 -45 35 -103 76
-129 92 -42 26 -69 55 -52 55 3 0 71 -43 150 -96z m-77 14 c20 -12 38 -25 41
-28 3 -3 36 -28 73 -54 70 -50 78 -67 38 -73 -13 -2 -30 -7 -39 -12 -24 -13
-131 62 -132 93 0 4 15 -3 33 -16 43 -33 107 -71 107 -64 0 2 -33 28 -74 56
-41 28 -77 58 -80 66 -5 14 106 -59 151 -99 13 -11 25 -18 28 -15 3 3 -34 35
-83 71 -116 86 -152 129 -63 75z m46 -154 c14 -9 25 -19 25 -23 0 -11 -48 -12
-55 -1 -4 6 1 7 12 3 17 -6 17 -5 -1 15 -23 26 -15 28 19 6z"/>
<path d="M3380 2940 c-12 -8 -11 -13 7 -38 12 -17 25 -42 29 -56 7 -30 26 -34
45 -8 11 14 11 15 -1 5 -18 -17 -30 -16 -30 1 0 7 -11 30 -25 50 -17 25 -21
38 -12 41 39 12 41 13 22 14 -11 0 -27 -4 -35 -9z"/>
<path d="M3448 2934 c6 -11 18 -28 27 -39 15 -19 15 -18 1 12 -9 17 -21 35
-27 39 -8 4 -8 1 -1 -12z"/>
<path d="M3530 2940 c8 -5 20 -10 25 -10 6 0 3 5 -5 10 -8 5 -19 10 -25 10 -5
0 -3 -5 5 -10z"/>
<path d="M3445 2870 c-3 -6 1 -7 9 -4 18 7 21 14 7 14 -6 0 -13 -4 -16 -10z"/>
<path d="M3314 2824 c-18 -14 -18 -15 4 -4 12 6 22 13 22 15 0 8 -5 6 -26 -11z"/>
<path d="M3205 2765 c-44 -24 -111 -61 -148 -81 -37 -20 -66 -39 -64 -41 3 -2
20 5 38 15 19 11 85 47 147 81 95 53 123 72 110 71 -2 0 -39 -20 -83 -45z"/>
<path d="M3050 3161 c0 -6 4 -13 10 -16 6 -3 7 1 4 9 -7 18 -14 21 -14 7z"/>
<path d="M2230 2866 c0 -7 421 -278 425 -274 5 4 -407 278 -418 278 -4 0 -7
-2 -7 -4z"/>
<path d="M2770 2725 c0 -6 56 -35 67 -35 4 0 -5 9 -22 20 -29 19 -45 25 -45
15z"/>
<path d="M3220 2640 c0 -5 5 -10 10 -10 6 0 10 5 10 10 0 6 -4 10 -10 10 -5 0
-10 -4 -10 -10z"/>
<path d="M2706 2597 c3 -10 9 -15 12 -12 3 3 0 11 -7 18 -10 9 -11 8 -5 -6z"/>
<path d="M3113 1839 c-32 -29 -60 -54 -63 -57 -3 -2 5 -1 18 2 24 8 87 -28 77
-45 -4 -5 -19 1 -35 12 -26 20 -30 20 -44 6 -14 -13 -11 -18 24 -42 22 -15 37
-32 34 -37 -8 -13 -66 34 -83 67 l-14 28 -18 -59 c-10 -32 -19 -85 -19 -116 0
-54 2 -58 23 -58 14 0 31 13 47 37 14 20 42 54 63 74 20 21 37 44 37 52 0 8
12 40 26 71 28 61 29 109 2 114 -9 2 -43 -20 -75 -49z m77 21 c0 -5 -2 -10 -4
-10 -3 0 -8 5 -11 10 -3 6 -1 10 4 10 6 0 11 -4 11 -10z m-10 -20 c8 -5 11
-12 7 -16 -4 -4 -15 0 -24 9 -18 18 -8 23 17 7z m-15 -23 c11 -8 14 -16 8 -20
-6 -4 -18 2 -28 13 -21 23 -8 27 20 7z m-20 -23 c14 -9 22 -20 20 -25 -8 -12
-55 12 -55 28 0 17 5 16 35 -3z m-27 -60 c21 -15 30 -34 15 -34 -5 1 -21 12
-38 25 -34 28 -14 35 23 9z m-23 -72 c-3 -3 -11 0 -17 6 -7 7 -17 12 -22 12
-6 0 0 -9 14 -20 14 -11 19 -20 12 -20 -8 0 -25 9 -39 20 -19 14 -21 20 -10
20 11 0 14 5 10 17 -5 14 0 12 26 -6 18 -13 30 -26 26 -29z m-35 -39 c0 -8 -7
-10 -17 -6 -15 6 -16 4 -5 -9 10 -13 10 -17 -1 -21 -9 -3 -13 6 -13 33 -1 34
1 37 18 27 10 -7 18 -17 18 -24z"/>
<path d="M2985 2185 c22 -18 86 -53 70 -38 -5 6 -28 20 -50 32 -22 13 -31 15
-20 6z"/>
<path d="M2350 2199 c18 -12 232 -128 379 -206 56 -30 100 -50 97 -44 -4 6
-28 21 -54 34 -26 12 -85 44 -132 69 -178 97 -294 158 -299 157 -3 0 1 -5 9
-10z"/>
<path d="M2830 2089 c25 -17 110 -60 110 -55 0 6 -108 66 -117 66 -5 0 -1 -5
7 -11z"/>
<path d="M2927 1939 c7 -7 15 -10 18 -7 3 3 -2 9 -12 12 -14 6 -15 5 -6 -5z"/>
<path d="M2841 1936 c2 -2 15 -9 29 -15 24 -11 24 -11 6 3 -16 13 -49 24 -35
12z"/>
<path d="M2907 1899 c7 -7 15 -10 18 -7 3 3 -2 9 -12 12 -14 6 -15 5 -6 -5z"/>
<path d="M2350 2024 c0 -5 304 -154 314 -154 3 0 62 -27 132 -60 70 -34 128
-59 130 -57 2 2 -49 28 -114 59 -64 31 -193 93 -286 137 -176 84 -176 85 -176
75z"/>
<path d="M1975 3317 c-19 -21 -36 -46 -51 -76 -4 -8 0 -19 11 -27 16 -12 21
-12 34 0 9 7 26 17 39 20 12 4 22 11 22 15 0 5 11 20 25 36 20 21 23 30 14 41
-17 21 -71 16 -94 -9z m48 -32 c-10 -12 -21 -21 -25 -19 -3 2 -8 -2 -11 -8 -2
-7 -4 0 -4 15 0 20 6 31 21 37 31 11 38 2 19 -25z"/>
</g>
</svg>
